<?xml version="1.0" standalone="no"?>
<!DOCTYPE svg PUBLIC "-//W3C//DTD SVG 20010904//EN"
 "http://www.w3.org/TR/2001/REC-SVG-20010904/DTD/svg10.dtd">
<svg version="1.0" xmlns="http://www.w3.org/2000/svg"
 width="700.000000pt" height="700.000000pt" viewBox="0 0 700.000000 700.000000"
 preserveAspectRatio="xMidYMid meet">
<metadata>
Created by potrace 1.11, written by Peter Selinger 2001-2013
</metadata>
<g transform="translate(0.000000,700.000000) scale(0.100000,-0.100000)"
fill="#000000" stroke="none">
<path d="M3279 6645 c-3 -2 -36 -7 -74 -10 -68 -5 -110 -10 -170 -19 -16 -3
-50 -8 -75 -11 -184 -27 -529 -131 -725 -220 -206 -93 -287 -137 -475 -260
-244 -159 -499 -389 -695 -626 -193 -232 -383 -554 -488 -824 -19 -49 -38 -99
-42 -110 -5 -11 -9 -22 -10 -25 -1 -3 -15 -50 -32 -105 -27 -86 -36 -118 -49
-170 -40 -169 -39 -163 -48 -226 -4 -25 -9 -59 -12 -75 -19 -105 -28 -251 -29
-459 0 -278 18 -459 71 -693 93 -416 277 -820 529 -1167 40 -55 81 -109 92
-120 10 -11 36 -43 58 -70 51 -64 263 -278 334 -336 29 -24 63 -52 75 -63 181
-157 499 -347 778 -465 186 -79 506 -171 673 -195 22 -4 51 -8 65 -11 14 -3
43 -7 65 -10 22 -2 74 -7 115 -12 85 -9 499 -10 575 -1 28 4 77 9 110 13 53 6
214 34 285 49 14 3 34 8 45 10 304 62 751 258 1035 454 89 61 164 115 170 122
3 3 46 39 95 80 157 130 349 330 474 493 239 312 415 660 525 1037 20 69 38
134 40 145 3 11 11 54 20 95 24 117 41 232 54 355 9 97 9 483 -1 580 -77 746
-384 1400 -902 1920 -321 322 -654 544 -1068 711 -149 60 -394 134 -522 159
-121 22 -205 36 -258 41 -34 3 -73 8 -87 11 -30 6 -516 14 -521 8z"/>
</g>
</svg>
